<svg width="50" height="50" viewBox="0 0 50 50" fill="none" xmlns="http://www.w3.org/2000/svg">
<g clip-path="url(#clip0_140_2)">
<path d="M35.4167 11.7188C35.4167 17.0508 29.0712 26.5527 26.2847 30.4688C25.6163 31.4063 24.375 31.4063 23.7153 30.4688C20.9288 26.5527 14.5833 17.0508 14.5833 11.7188C14.5833 5.24414 19.2448 0 25 0C30.7552 0 35.4167 5.24414 35.4167 11.7188ZM36.1111 19.5703C36.4149 18.8965 36.6927 18.2227 36.9444 17.5586C36.9878 17.4414 37.0312 17.3145 37.0747 17.1973L47.1441 12.666C48.5156 12.0508 50 13.1836 50 14.8438V41.2891C50 42.2461 49.4792 43.1055 48.6892 43.4668L36.1111 49.1211V19.5703ZM11.9444 13.5059C12.1528 14.8828 12.5694 16.2695 13.0556 17.5586C13.3073 18.2227 13.5851 18.8965 13.8889 19.5703V44.1211L2.8559 49.0918C1.48438 49.707 0 48.5742 0 46.9141V20.4688C0 19.5117 0.520833 18.6523 1.31076 18.291L11.9531 13.5059H11.9444ZM28.4549 32.4219C29.6615 30.7227 31.5538 27.959 33.3333 24.9023V49.248L16.6667 43.8867V24.9023C18.4462 27.959 20.3385 30.7227 21.5451 32.4219C23.3247 34.9219 26.6753 34.9219 28.4549 32.4219ZM25 14.8438C25.9209 14.8438 26.8041 14.4322 27.4552 13.6996C28.1064 12.9671 28.4722 11.9735 28.4722 10.9375C28.4722 9.9015 28.1064 8.90793 27.4552 8.17536C26.8041 7.4428 25.9209 7.03125 25 7.03125C24.0791 7.03125 23.1959 7.4428 22.5448 8.17536C21.8936 8.90793 21.5278 9.9015 21.5278 10.9375C21.5278 11.9735 21.8936 12.9671 22.5448 13.6996C23.1959 14.4322 24.0791 14.8438 25 14.8438Z" fill="#FB0B0B"/>
</g>
<defs>
<clipPath id="clip0_140_2">
<rect width="50" height="50" fill="white"/>
</clipPath>
</defs>
</svg>
