<svg width="50" height="50" viewBox="0 0 50 50" fill="none" xmlns="http://www.w3.org/2000/svg">
<g clip-path="url(#clip0_133_21)">
<path d="M40.625 20.3125C40.625 24.7949 39.1699 28.9355 36.7188 32.2949L49.082 44.668C50.3027 45.8887 50.3027 47.8711 49.082 49.0918C47.8613 50.3125 45.8789 50.3125 44.6582 49.0918L32.2949 36.7188C28.9355 39.1797 24.7949 40.625 20.3125 40.625C9.0918 40.625 0 31.5332 0 20.3125C0 9.0918 9.0918 0 20.3125 0C31.5332 0 40.625 9.0918 40.625 20.3125ZM20.3125 34.375C22.1592 34.375 23.9878 34.0113 25.694 33.3046C27.4001 32.5979 28.9504 31.562 30.2562 30.2562C31.562 28.9504 32.5979 27.4001 33.3046 25.694C34.0113 23.9878 34.375 22.1592 34.375 20.3125C34.375 18.4658 34.0113 16.6372 33.3046 14.931C32.5979 13.2249 31.562 11.6746 30.2562 10.3688C28.9504 9.06299 27.4001 8.02715 25.694 7.32044C23.9878 6.61374 22.1592 6.25 20.3125 6.25C18.4658 6.25 16.6372 6.61374 14.931 7.32044C13.2249 8.02715 11.6746 9.06299 10.3688 10.3688C9.06299 11.6746 8.02715 13.2249 7.32044 14.931C6.61374 16.6372 6.25 18.4658 6.25 20.3125C6.25 22.1592 6.61374 23.9878 7.32044 25.694C8.02715 27.4001 9.06299 28.9504 10.3688 30.2562C11.6746 31.562 13.2249 32.5979 14.931 33.3046C16.6372 34.0113 18.4658 34.375 20.3125 34.375Z" fill="#101375"/>
</g>
<defs>
<clipPath id="clip0_133_21">
<rect width="50" height="50" fill="white"/>
</clipPath>
</defs>
</svg>
